<?xml version="1.0" encoding="utf-8"?>
<!-- Generator: Adobe Illustrator 23.0.4, SVG Export Plug-In . SVG Version: 6.00 Build 0)  -->
<svg version="1.1" id="Layer_1" xmlns="http://www.w3.org/2000/svg" xmlns:xlink="http://www.w3.org/1999/xlink" x="0px" y="0px"
	 viewBox="0 0 710 206" style="" xml:space="preserve">
<style type="text/css">
	.st0{fill:#fff;}
	.st1{display:none;}
	.st2{display:inline;}
	.st3{font-family:'ProximaNovaSoft-Bold';}
	.st4{font-size:61.3944px;}
</style>
<g>
	<path class="st0" d="M169.34,14.79H63.66c-2.19,0-3.97,1.78-3.97,3.97v28.82c0,2.19,1.78,3.97,3.97,3.97h3.96
		c2.19,0,3.96-1.78,3.96-3.97V26.69l89.82,0v20.89c0,2.19,1.78,3.97,3.97,3.97h3.96c2.19,0,3.97-1.78,3.97-3.97V18.76
		C173.3,16.57,171.53,14.79,169.34,14.79"/>
	<path class="st0" d="M221.04,60.26h-28.19c-1.72,0-3.31,1-4.05,2.56l-43.6,91.91l-39.17-82.57h19.84l-4.04,8.51
		c-0.67,1.41-0.67,3.03,0,4.44l2.48,5.23c0.56,1.19,1.73,1.93,3.05,1.93c1.32,0,2.48-0.74,3.05-1.93l11.61-24.47
		c0.58-1.22,0.49-2.64-0.23-3.78c-0.72-1.14-1.96-1.83-3.32-1.83H93.43c-1.35,0-2.59,0.68-3.32,1.83c-0.72,1.14-0.81,2.56-0.23,3.78
		l19.48,41.08L86.7,154.73L43.1,62.82c-0.74-1.55-2.33-2.56-4.05-2.56H11.97C9.78,60.26,8,62.04,8,64.23l0,123.55
		c0,2.19,1.78,3.97,3.97,3.97h209.07c2.19,0,3.96-1.78,3.96-3.97V64.23C225,62.04,223.22,60.26,221.04,60.26 M86.7,171.13
		c3.28,0,6.3-1.91,7.7-4.87l21.55-45.43l21.55,45.43c1.4,2.96,4.43,4.87,7.7,4.87s6.3-1.91,7.7-4.87l44.63-94.1h15.56v107.69H19.9
		V72.16h14.47L79,166.25C80.4,169.21,83.42,171.13,86.7,171.13"/>
</g>
<g class="st1">
	<g id="Workruit_Name_1_" class="st2">
		<g>
			<g>
				<path id="XMLID_11_" class="st0" d="M678.03,40.09h-8.05c-1.57,0-2.85,1.27-2.85,2.85v49.18c0,15.84,12.84,28.67,28.67,28.67
					h5.34c1.57,0,2.85-1.27,2.85-2.85v-8.05c0-1.57-1.27-2.85-2.85-2.85h-5.34c-8.25,0-14.94-6.69-14.94-14.94V42.93
					C680.87,41.36,679.6,40.09,678.03,40.09z"/>
				<path id="XMLID_10_" class="st0" d="M694.75,60.69h-19.71v13.74h19.71c1.57,0,2.85-1.27,2.85-2.85v-8.05
					C697.59,61.97,696.32,60.69,694.75,60.69z"/>
				<path id="XMLID_9_" class="st0" d="M433.88,120.79h-8.05c-1.57,0-2.85-1.27-2.85-2.85v-54.4c0-1.57,1.27-2.85,2.85-2.85h8.05
					c1.57,0,2.85,1.27,2.85,2.85v54.4C436.72,119.51,435.45,120.79,433.88,120.79z"/>
				<path id="XMLID_8_" class="st0" d="M481.59,120.75h-8.05c-1.57,0-2.85-1.27-2.85-2.85V42.93c0-1.57,1.27-2.85,2.85-2.85h8.05
					c1.57,0,2.85,1.27,2.85,2.85v74.98C484.44,119.48,483.17,120.75,481.59,120.75z"/>
				<path id="XMLID_7_" class="st0" d="M657.55,120.79h-8.05c-1.57,0-2.85-1.27-2.85-2.85v-54.4c0-1.57,1.27-2.85,2.85-2.85h8.05
					c1.57,0,2.85,1.27,2.85,2.85v54.4C660.39,119.51,659.12,120.79,657.55,120.79z"/>
				<path id="XMLID_6_" class="st0" d="M657.55,53.82h-8.05c-1.57,0-2.85-1.27-2.85-2.85v-8.05c0-1.57,1.27-2.85,2.85-2.85h8.05
					c1.57,0,2.85,1.27,2.85,2.85v8.05C660.39,52.55,659.12,53.82,657.55,53.82z"/>
				<path id="XMLID_3_" class="st0" d="M386.53,120.79c-16.57,0-30.05-13.48-30.05-30.05c0-16.57,13.48-30.05,30.05-30.05
					c16.57,0,30.05,13.48,30.05,30.05C416.58,107.31,403.1,120.79,386.53,120.79z M386.53,74.43c-8.99,0-16.31,7.32-16.31,16.31
					s7.32,16.31,16.31,16.31c8.99,0,16.31-7.32,16.31-16.31S395.53,74.43,386.53,74.43z"/>
				<path id="XMLID_2_" class="st0" d="M585.41,60.69h8.05c1.57,0,2.85,1.27,2.85,2.85v28.05c0,7.59,5.44,14.37,12.97,15.33
					c9.11,1.17,16.91-5.93,16.91-14.81V63.54c0-1.57,1.27-2.85,2.85-2.85h8.05c1.57,0,2.85,1.27,2.85,2.85v27.74
					c0,15.42-11.83,28.71-27.23,29.47c-16.46,0.81-30.12-12.35-30.12-28.64V63.54C582.56,61.97,583.84,60.69,585.41,60.69z"/>
				<path class="st0" d="M525.68,116.27l-27.63-39.23c-3.77,2.64-7.7,5.01-11.79,7.11l24.92,35.39c0.53,0.76,1.4,1.21,2.33,1.21
					h9.84C525.66,120.75,527.01,118.16,525.68,116.27z"/>
				<path class="st0" d="M503.65,61.72l-23.91,28.66c1.4,2.23,2.73,4.51,3.99,6.88c0.82,2.27-1.52,8.38-0.7,10.66l35.49-42.55
					c1.55-1.85,0.23-4.67-2.19-4.67h-10.5C504.99,60.69,504.19,61.07,503.65,61.72z"/>
				<g>
					<path class="st0" d="M336.34,63.54l0,32.15c0,5.68-4.14,10.76-9.79,11.31c-6.48,0.63-11.96-4.47-11.96-10.82V63.54
						c0-1.57-1.27-2.85-2.84-2.85h-8.05c-1.57,0-2.84,1.27-2.84,2.85v32.64c0,13.59,11.02,24.61,24.61,24.61l0,0
						c13.59,0,24.61-11.02,24.61-24.61V63.54c0-1.57-1.27-2.85-2.84-2.85h-8.05C337.62,60.69,336.34,61.97,336.34,63.54z"/>
					<path class="st0" d="M300.85,63.54v32.15c0,5.68-4.14,10.76-9.79,11.31c-6.48,0.63-11.96-4.47-11.96-10.82V63.54
						c0-1.57-1.27-2.85-2.84-2.85h-8.05c-1.57,0-2.84,1.27-2.84,2.85v32.64c0,13.59,11.02,24.61,24.61,24.61l0,0
						c13.59,0,24.61-11.02,24.61-24.61V63.54c0-1.57-1.27-2.85-2.84-2.85h-8.05C302.13,60.69,300.85,61.97,300.85,63.54z"/>
				</g>
				<path class="st0" d="M458.84,73.6l3.94-7.2c0.83-1.51,0.15-3.45-1.48-4.03c-5.09-1.82-10.72-2.22-16.33-0.89
					c-13.07,3.1-21.99,15.24-21.99,28.67v27.8c0,1.57,1.27,2.85,2.85,2.85h8.05c1.57,0,2.85-1.27,2.85-2.85v-27.9
					c0-7.09,4.65-13.59,11.55-15.22c2.48-0.58,4.96-0.5,7.27,0.13C456.84,75.3,458.2,74.77,458.84,73.6z"/>
				<path id="XMLID_1_" class="st0" d="M545.4,120.79h-8.05c-1.57,0-2.85-1.27-2.85-2.85V63.54c0-1.57,1.27-2.85,2.85-2.85h8.05
					c1.57,0,2.85,1.27,2.85,2.85v54.41C548.24,119.51,546.97,120.79,545.4,120.79z"/>
				<path class="st0" d="M570.36,73.6l3.94-7.2c0.83-1.51,0.15-3.45-1.48-4.03c-5.09-1.82-10.72-2.22-16.33-0.89
					c-13.07,3.1-21.99,15.24-21.99,28.67v27.8c0,1.57,1.27,2.85,2.85,2.85h8.05c1.57,0,2.85-1.27,2.85-2.85v-27.9
					c0-7.09,4.65-13.59,11.55-15.22c2.48-0.58,4.96-0.5,7.27,0.13C568.36,75.3,569.71,74.77,570.36,73.6z"/>
			</g>
		</g>
	</g>
	<text id="Round_Bold" transform="matrix(1 0 0 1 265.5703 177.8948)" class="st2 st3 st4">for Government</text>
</g>
<g>
	<g id="Workruit_Name_2_">
		<g>
			<g>
				<path id="XMLID_22_" class="st0" d="M676.48,41.12h-8.01c-1.56,0-2.83,1.27-2.83,2.83v48.97c0,15.77,12.78,28.55,28.55,28.55
					h5.32c1.56,0,2.83-1.27,2.83-2.83v-8.01c0-1.56-1.27-2.83-2.83-2.83h-5.32c-8.21,0-14.87-6.66-14.87-14.87V43.96
					C679.31,42.39,678.05,41.12,676.48,41.12z"/>
				<path id="XMLID_21_" class="st0" d="M693.13,61.64h-19.62v13.68h19.62c1.56,0,2.83-1.27,2.83-2.83v-8.01
					C695.96,62.91,694.69,61.64,693.13,61.64z"/>
				<path id="XMLID_20_" class="st0" d="M433.4,121.47h-8.01c-1.56,0-2.83-1.27-2.83-2.83V64.47c0-1.56,1.27-2.83,2.83-2.83h8.01
					c1.56,0,2.83,1.27,2.83,2.83v54.17C436.23,120.2,434.96,121.47,433.4,121.47z"/>
				<path id="XMLID_19_" class="st0" d="M480.91,121.44h-8.01c-1.56,0-2.83-1.27-2.83-2.83V43.96c0-1.56,1.27-2.83,2.83-2.83h8.01
					c1.56,0,2.83,1.27,2.83,2.83v74.65C483.74,120.17,482.47,121.44,480.91,121.44z"/>
				<path id="XMLID_18_" class="st0" d="M656.09,121.47h-8.01c-1.56,0-2.83-1.27-2.83-2.83V64.47c0-1.56,1.27-2.83,2.83-2.83h8.01
					c1.56,0,2.83,1.27,2.83,2.83v54.17C658.92,120.2,657.65,121.47,656.09,121.47z"/>
				<path id="XMLID_17_" class="st0" d="M656.09,54.8h-8.01c-1.56,0-2.83-1.27-2.83-2.83v-8.01c0-1.56,1.27-2.83,2.83-2.83h8.01
					c1.56,0,2.83,1.27,2.83,2.83v8.01C658.92,53.53,657.65,54.8,656.09,54.8z"/>
				<path id="XMLID_14_" class="st0" d="M386.26,121.47c-16.5,0-29.92-13.42-29.92-29.92c0-16.5,13.42-29.92,29.92-29.92
					s29.92,13.42,29.92,29.92C416.18,108.05,402.76,121.47,386.26,121.47z M386.26,75.31c-8.95,0-16.24,7.28-16.24,16.24
					s7.29,16.24,16.24,16.24c8.96,0,16.24-7.28,16.24-16.24S395.22,75.31,386.26,75.31z"/>
				<path id="XMLID_13_" class="st0" d="M584.27,61.64h8.01c1.56,0,2.83,1.27,2.83,2.83V92.4c0,7.56,5.42,14.3,12.91,15.27
					c9.07,1.17,16.83-5.9,16.83-14.75V64.47c0-1.56,1.27-2.83,2.83-2.83h8.01c1.56,0,2.83,1.27,2.83,2.83v27.62
					c0,15.35-11.78,28.59-27.11,29.34c-16.39,0.81-29.99-12.3-29.99-28.51V64.47C581.43,62.91,582.7,61.64,584.27,61.64z"/>
				<path class="st0" d="M524.8,116.97L497.3,77.92c-3.76,2.63-7.67,4.99-11.74,7.08l24.81,35.24c0.53,0.75,1.39,1.2,2.32,1.2h9.8
					C524.78,121.44,526.12,118.85,524.8,116.97z"/>
				<path class="st0" d="M502.87,62.66l-23.8,28.54c1.39,2.22,2.72,4.49,3.97,6.85c0.82,2.26-1.52,8.35-0.7,10.61l35.34-42.36
					c1.54-1.84,0.23-4.65-2.18-4.65h-10.45C504.2,61.64,503.4,62.01,502.87,62.66z"/>
				<g>
					<path class="st0" d="M336.29,64.47l0,32.01c0,5.65-4.12,10.71-9.75,11.26c-6.45,0.63-11.91-4.45-11.91-10.78V64.47
						c0-1.56-1.27-2.83-2.83-2.83h-8.01c-1.56,0-2.83,1.27-2.83,2.83v32.49c0,13.53,10.97,24.5,24.5,24.5l0,0
						c13.53,0,24.5-10.97,24.5-24.5V64.47c0-1.56-1.27-2.83-2.83-2.83h-8.01C337.56,61.64,336.29,62.91,336.29,64.47z"/>
					<path class="st0" d="M300.95,64.47v32.01c0,5.65-4.12,10.71-9.75,11.26c-6.45,0.63-11.91-4.45-11.91-10.78V64.47
						c0-1.56-1.27-2.83-2.83-2.83h-8.01c-1.56,0-2.83,1.27-2.83,2.83v32.49c0,13.53,10.97,24.5,24.5,24.5l0,0
						c13.53,0,24.5-10.97,24.5-24.5V64.47c0-1.56-1.27-2.83-2.83-2.83h-8.01C302.22,61.64,300.95,62.91,300.95,64.47z"/>
				</g>
				<path class="st0" d="M458.25,74.49l3.93-7.17c0.83-1.51,0.15-3.44-1.47-4.01c-5.07-1.81-10.67-2.21-16.26-0.88
					c-13.01,3.09-21.89,15.17-21.89,28.54v27.68c0,1.56,1.27,2.83,2.83,2.83h8.01c1.56,0,2.83-1.27,2.83-2.83V90.86
					c0-7.06,4.63-13.53,11.5-15.15c2.47-0.58,4.94-0.5,7.24,0.13C456.26,76.18,457.61,75.65,458.25,74.49z"/>
				<path id="XMLID_12_" class="st0" d="M544.43,121.47h-8.01c-1.56,0-2.83-1.27-2.83-2.83V64.47c0-1.56,1.27-2.83,2.83-2.83h8.01
					c1.56,0,2.83,1.27,2.83,2.83v54.17C547.27,120.2,546,121.47,544.43,121.47z"/>
				<path class="st0" d="M569.28,74.49l3.93-7.17c0.83-1.51,0.15-3.44-1.47-4.01c-5.07-1.81-10.67-2.21-16.26-0.88
					c-13.01,3.09-21.89,15.17-21.89,28.54v27.68c0,1.56,1.27,2.83,2.83,2.83h8.01c1.56,0,2.83-1.27,2.83-2.83V90.86
					c0-7.06,4.63-13.53,11.5-15.15c2.47-0.58,4.94-0.5,7.24,0.13C567.29,76.18,568.64,75.65,569.28,74.49z"/>
			</g>
		</g>
	</g>
	<g fill="#fff">
		<path d="M281.16,148.03v1.65h3.55c1.53,0,2.81,1.28,2.81,2.81s-1.29,2.81-2.81,2.81h-3.55v21.03c0,1.77-1.47,3.24-3.18,3.24
			c-1.77,0-3.24-1.47-3.24-3.24v-21.03h-2.45c-1.53,0-2.81-1.28-2.81-2.81s1.28-2.81,2.81-2.81h2.45v-1.65
			c0-6.6,3.92-10.21,9.36-10.21c1.04,0,2.08,0.12,3,0.37c1.1,0.31,1.96,1.22,1.96,2.44c0,1.47-0.8,2.57-2.51,2.57
			c-0.43,0-0.98-0.12-1.29-0.12C282.76,143.08,281.16,144.73,281.16,148.03z"/>
		<path d="M290.22,164.41c0-8.44,5.81-15.46,15.18-15.46c9.48,0,15.24,7.03,15.24,15.46c0,8.5-5.75,15.53-15.24,15.53
			C296.03,179.94,290.22,172.91,290.22,164.41z M313.96,164.41c0-5.2-3.06-9.78-8.57-9.78c-5.45,0-8.51,4.58-8.51,9.78
			c0,5.26,3.06,9.84,8.51,9.84C310.9,174.25,313.96,169.67,313.96,164.41z"/>
		<path d="M343.58,152.19c0,1.47-1.1,2.75-3.3,3.06c-2.2,0.31-5.45,1.77-6.73,3.85v17.24c0,1.77-1.47,3.24-3.18,3.24
			c-1.77,0-3.24-1.47-3.24-3.24v-23.78c0-1.77,1.47-3.24,3.18-3.24c1.77,0,3.24,1.47,3.24,3.24v1.47c1.59-2.08,3.79-3.85,5.69-4.46
			c0.73-0.24,1.16-0.37,1.71-0.37C342.78,149.19,343.58,150.6,343.58,152.19z"/>
		<path d="M400.67,161.11v8.74c0,1.89-0.49,3.36-1.96,4.65c-3.85,3.36-8.81,5.5-14.87,5.5c-11.81,0-21.42-8.37-21.42-21.15
			c0-12.78,9.61-21.09,21.42-21.09c6.12,0,10.59,2.2,13.89,5.5c0.61,0.61,0.98,1.47,0.98,2.38c0,1.83-1.47,3.3-3.3,3.3
			c-0.92,0-1.77-0.37-2.39-0.98c-2.33-2.32-5.51-3.85-9.18-3.85c-8.08,0-14.07,6.17-14.07,14.73s6,14.79,14.07,14.79
			c4.16,0,7.83-1.96,9.67-3.67v-6.36h-9.36c-1.71,0-3.18-1.41-3.18-3.18c0-1.71,1.47-3.12,3.18-3.12h12.73
			C399.32,157.32,400.67,158.67,400.67,161.11z"/>
		<path d="M406.12,164.41c0-8.44,5.81-15.46,15.18-15.46c9.48,0,15.24,7.03,15.24,15.46c0,8.5-5.75,15.53-15.24,15.53
			C411.93,179.94,406.12,172.91,406.12,164.41z M429.86,164.41c0-5.2-3.06-9.78-8.57-9.78c-5.45,0-8.51,4.58-8.51,9.78
			c0,5.26,3.06,9.84,8.51,9.84C426.8,174.25,429.86,169.67,429.86,164.41z"/>
		<path d="M468.35,152.49c0,0.43-0.12,0.86-0.24,1.22l-9.3,22.8c-0.73,1.83-2.51,3.06-4.53,3.06c-2.08,0-3.86-1.22-4.59-3.06
			l-9.3-22.86c-0.12-0.37-0.24-0.73-0.24-1.16c0-1.77,1.41-3.18,3.12-3.18c1.35,0,2.57,0.86,3,2.02l7.95,20.54l7.95-20.54
			c0.43-1.16,1.65-2.02,3-2.02C466.94,149.32,468.35,150.72,468.35,152.49z"/>
		<path d="M486.95,148.95c8.87,0,14.56,6.78,14.56,14.61c0,1.89-1.35,3-3.79,3h-19.03c0.49,4.46,3.85,8.13,9.42,8.13
			c2.14,0,4.65-0.67,6.73-1.96c0.37-0.24,0.86-0.37,1.41-0.37c1.41,0,2.57,1.16,2.57,2.57c0,0.92-0.49,1.65-1.16,2.14
			c-2.94,1.96-6.49,2.87-10.22,2.87c-8.87,0-15.48-6.17-15.48-15.53C471.96,155.86,478.2,148.95,486.95,148.95z M478.63,162.03
			h16.64c-0.12-3.48-2.51-7.82-8.32-7.82C481.44,154.21,478.93,158.42,478.63,162.03z"/>
		<path d="M524.34,152.19c0,1.47-1.1,2.75-3.3,3.06c-2.2,0.31-5.45,1.77-6.73,3.85v17.24c0,1.77-1.47,3.24-3.18,3.24
			c-1.77,0-3.24-1.47-3.24-3.24v-23.78c0-1.77,1.47-3.24,3.18-3.24c1.77,0,3.24,1.47,3.24,3.24v1.47c1.59-2.08,3.79-3.85,5.69-4.46
			c0.73-0.24,1.16-0.37,1.71-0.37C523.54,149.19,524.34,150.6,524.34,152.19z"/>
		<path d="M555.48,158.42v17.91c0,1.77-1.47,3.24-3.24,3.24c-1.71,0-3.18-1.47-3.18-3.24v-15.59c0-4.58-2.33-6.11-5.94-6.11
			c-3.3,0-6.12,1.96-7.59,3.97v17.73c0,1.77-1.47,3.24-3.18,3.24c-1.77,0-3.24-1.47-3.24-3.24v-23.78c0-1.77,1.47-3.24,3.18-3.24
			c1.77,0,3.24,1.47,3.24,3.24v1.16c1.96-2.32,5.75-4.77,10.4-4.77C552.3,148.95,555.48,152.37,555.48,158.42z"/>
		<path d="M606.45,157.87v18.46c0,1.77-1.47,3.24-3.24,3.24c-1.71,0-3.18-1.47-3.18-3.24v-16.38c0-3.18-1.41-5.32-4.83-5.32
			c-2.88,0-5.57,2.02-6.85,3.91v17.79c0,1.77-1.47,3.24-3.24,3.24c-1.71,0-3.18-1.47-3.18-3.24v-16.38c0-3.18-1.41-5.32-4.9-5.32
			c-2.81,0-5.45,2.02-6.79,3.97v17.73c0,1.77-1.47,3.24-3.18,3.24c-1.77,0-3.24-1.47-3.24-3.24v-23.78c0-1.77,1.47-3.24,3.18-3.24
			c1.77,0,3.24,1.47,3.24,3.24v1.16c1.22-1.77,5.14-4.77,9.61-4.77c4.41,0,7.1,2.2,8.08,5.44c1.71-2.69,5.63-5.44,10.03-5.44
			C603.39,148.95,606.45,151.88,606.45,157.87z"/>
		<path d="M627.93,148.95c8.87,0,14.56,6.78,14.56,14.61c0,1.89-1.35,3-3.79,3h-19.03c0.49,4.46,3.86,8.13,9.42,8.13
			c2.14,0,4.65-0.67,6.73-1.96c0.37-0.24,0.86-0.37,1.41-0.37c1.41,0,2.57,1.16,2.57,2.57c0,0.92-0.49,1.65-1.16,2.14
			c-2.94,1.96-6.49,2.87-10.22,2.87c-8.87,0-15.48-6.17-15.48-15.53C612.94,155.86,619.18,148.95,627.93,148.95z M619.61,162.03
			h16.64c-0.12-3.48-2.51-7.82-8.32-7.82C622.43,154.21,619.92,158.42,619.61,162.03z"/>
		<path d="M675.23,158.42v17.91c0,1.77-1.47,3.24-3.24,3.24c-1.71,0-3.18-1.47-3.18-3.24v-15.59c0-4.58-2.33-6.11-5.94-6.11
			c-3.3,0-6.12,1.96-7.59,3.97v17.73c0,1.77-1.47,3.24-3.18,3.24c-1.77,0-3.24-1.47-3.24-3.24v-23.78c0-1.77,1.47-3.24,3.18-3.24
			c1.77,0,3.24,1.47,3.24,3.24v1.16c1.96-2.32,5.75-4.77,10.4-4.77C672.05,148.95,675.23,152.37,675.23,158.42z"/>
		<path d="M698.36,176.76c0,1.22-0.67,2.08-1.71,2.44c-1.04,0.43-2.45,0.73-4.22,0.73c-4.96,0-7.59-2.69-7.59-7.58v-17.05h-2.45
			c-1.53,0-2.81-1.28-2.81-2.81s1.29-2.81,2.81-2.81h2.45v-5.2c0-1.77,1.47-3.24,3.24-3.24c1.71,0,3.18,1.47,3.18,3.24v5.2h3.55
			c1.53,0,2.81,1.28,2.81,2.81s-1.29,2.81-2.81,2.81h-3.55v15.46c0,2.02,0.98,3.48,2.81,3.48c0.73,0,1.1-0.18,1.59-0.18
			C697.32,174.07,698.36,175.23,698.36,176.76z"/>
	</g>
</g>
</svg>
